<svg xmlns="http://www.w3.org/2000/svg" width="360" height="720" viewBox="0 0 360 720" role="img" aria-label="Mockup telefono">
  <defs>
    <linearGradient id="bg" x1="0" y1="0" x2="1" y2="1">
      <stop offset="0" stop-color="#111827"/>
      <stop offset="1" stop-color="#0B1220"/>
    </linearGradient>
    <linearGradient id="cta" x1="0" y1="0" x2="1" y2="1">
      <stop offset="0" stop-color="#4F46E5"/>
      <stop offset="1" stop-color="#22D3EE"/>
    </linearGradient>
  </defs>
  <rect x="16" y="8" width="328" height="704" rx="48" fill="#0a0f1c" stroke="#1f2937" stroke-width="2"/>
  <rect x="32" y="56" width="296" height="608" rx="28" fill="url(#bg)"/>
  <g transform="translate(32 56)">
    <rect x="24" y="32" width="248" height="16" rx="8" fill="rgba(255,255,255,.08)"/>
    <rect x="24" y="72" width="208" height="8" rx="4" fill="rgba(255,255,255,.16)"/>
    <rect x="24" y="92" width="176" height="8" rx="4" fill="rgba(255,255,255,.16)"/>
    <rect x="24" y="128" width="248" height="140" rx="16" fill="#0B1220" stroke="rgba(255,255,255,.08)"/>
    <rect x="24" y="284" width="248" height="56" rx="12" fill="url(#cta)"/>
    <rect x="24" y="356" width="116" height="88" rx="12" fill="#0B1220" stroke="rgba(255,255,255,.08)"/>
    <rect x="156" y="356" width="116" height="88" rx="12" fill="#0B1220" stroke="rgba(255,255,255,.08)"/>
    <rect x="24" y="460" width="248" height="16" rx="8" fill="rgba(255,255,255,.08)"/>
    <rect x="24" y="484" width="208" height="8" rx="4" fill="rgba(255,255,255,.16)"/>
  </g>
</svg>

