<svg xmlns="http://www.w3.org/2000/svg" width="156" height="48" viewBox="0 0 156 48" role="img" aria-label="Scarica su App Store">
  <title>Scarica su App Store</title>
  <rect width="156" height="48" rx="12" fill="#0B1220"/>
  <rect x=".5" y=".5" width="155" height="47" rx="11.5" fill="none" stroke="rgba(255,255,255,.12)"/>
  <g transform="translate(12 10)">
    <circle cx="14" cy="14" r="14" fill="url(#g)"/>
    <defs>
      <linearGradient id="g" x1="0" y1="0" x2="1" y2="1">
        <stop offset="0" stop-color="#4F46E5"/>
        <stop offset="1" stop-color="#22D3EE"/>
      </linearGradient>
    </defs>
    <path d="M20 10c-1 2-3 3-5 3-1 0-2-1-3-1s-2 1-3 1c-1 0-2-1-3-2 1-2 2-3 4-3 1 0 2 1 3 1s2-1 3-1c1 0 2 1 4 2z" fill="#fff" opacity=".95"/>
  </g>
  <g transform="translate(46 15)" fill="#fff">
    <text font-family="-apple-system,Segoe UI,Roboto,Arial" font-size="10" opacity=".8">Scarica su</text>
    <text y="16" font-family="-apple-system,Segoe UI,Roboto,Arial" font-weight="700" font-size="14">App Store</text>
  </g>
</svg>

